{"title":"Endure-AC3-XviD-DVDRip 2010 TBS","uid":6389327,"size":1372428955,"categoryP":"video","categoryS":"movies","magnet":"?xt=urn:btih:9e034db69ba927c44092ef7ed10e2b3466662bdd&amp;dn=Endure-AC3-XviD-DVDRip+2010+TBS&amp;tr=udp%3A%2F%2Ftracker.openbittorrent.com%3A80&amp;tr=udp%3A%2F%2Fopen.demonii.com%3A1337&amp;tr=udp%3A%2F%2Ftracker.coppersurfer.tk%3A6969&amp;tr=udp%3A%2F%2Fexodus.desync.com%3A6969","seeders":0,"leechers":1,"uploader":"FatFreddy30","files":-1,"time":1305302546,"description":"After a shocking photo of a young woman is found inside the twisted metal of a fatal car crash, veteran detective Emory Lloyd must risk everything to identify and find the woman before it's too late...\n &lt;a href=&quot;\nhttp://www.imdb.com/title/tt1230372/&quot; rel=&quot;nofollow&quot; target=&quot;_NEW&quot;&gt;\nhttp://www.imdb.com/title/tt1230372/&lt;/a&gt;\n\nSubs: Dutch, English.\n\n\nEen jonge vrouw is ontvoerd, gemarteld en vastgebonden aan een boom in een geÃƒÂ¯soleerd moeras in centraal Florida. De enige persoon die haar locatie weet is dood. De ervaren rechercheur Emory Lane wordt 's avonds laat gebeld als hij bij het bed van zijn zieke vrouw zit. Hij wordt opgeroepen om naar de plaats te komen van een gruwelijk auto ongeluk op een verlaten snelweg. In het wrak ontdekt hij een foto van een jonge vrouw die vastgebonden zit aan een boom. Hij moet alles in het werk stellen om de vrouw te identificeren en te vinden, voor het te laat is...\n &lt;a href=&quot;\nhttp://www.moviemeter.nl/film/66250&quot; rel=&quot;nofollow&quot; target=&quot;_NEW&quot;&gt;\nhttp://www.moviemeter.nl/film/66250&lt;/a&gt;\n\nSubs: Engels, Nederlands.\n\nGeneral\nComplete name                    : Endure-AC3-XviD-DVDRip 2010.avi\nFormat                           : AVI\nFormat/Info                      : Audio Video Interleave\nFile size                        : 1.28 GiB\nDuration                         : 1h 31mn\nOverall bit rate                 : 1 993 Kbps\nWriting application              : VirtualDubMod 1.5.4.1 (build 2178/release)\nWriting library                  : VirtualDubMod build 2178/release\nSource                           : Endure (2010) COMPLETE.R1.NTSC.DVDR-IGUANA\n\nVideo\nID                               : 0\nFormat                           : MPEG-4 Visual\nFormat profile                   : Simple@L3\nFormat settings, BVOP            : No\nFormat settings, QPel            : No\nFormat settings, GMC             : No warppoints\nFormat settings, Matrix          : Default (H.263)\nCodec ID                         : XVID\nCodec ID/Hint                    : XviD\nDuration                         : 1h 31mn\nBit rate                         : 1 663 Kbps\nWidth                            : 720 pixels\nHeight                           : 400 pixels\nDisplay aspect ratio             : 16:9\nFrame rate                       : 23.976 fps\nResolution                       : 8 bits\nColorimetry                      : 4:2:0\nScan type                        : Progressive\nBits/(Pixel*Frame)               : 0.241\nStream size                      : 1.07 GiB (83%)\nWriting library                  : XviD 1.1.2 (UTC 2006-11-01)\n\nAudio\nID                               : 1\nFormat                           : AC-3\nFormat/Info                      : Audio Coding 3\nCodec ID                         : 2000\nDuration                         : 1h 31mn\nBit rate mode                    : Constant\nBit rate                         : 320 Kbps\nChannel(s)                       : 6 channels\nChannel positions                : Front: L C R, Surround: L R, LFE\nSampling rate                    : 48.0 KHz\nStream size                      : 210 MiB (16%)\nAlignment                        : Split accross interleaves\nInterleave, duration             : 42 ms (1.00 video frame)\nInterleave, preload duration     : 500 ms\n\nEnjoy...\n\nTBS.\n\nThanks to Simply ReleaseS Toppers","torrent":{"xt":"urn:btih:9e034db69ba927c44092ef7ed10e2b3466662bdd","amp;dn":"Endure-AC3-XviD-DVDRip+2010+TBS","amp;tr":["udp%3A%2F%2Ftracker.openbittorrent.com%3A80","udp%3A%2F%2Fopen.demonii.com%3A1337","udp%3A%2F%2Ftracker.coppersurfer.tk%3A6969","udp%3A%2F%2Fexodus.desync.com%3A6969"],"infoHash":"9e034db69ba927c44092ef7ed10e2b3466662bdd","infoHashBuffer":{"type":"Buffer","data":[158,3,77,182,155,169,39,196,64,146,239,126,209,14,43,52,102,102,43,221]},"announce":[],"urlList":[]}}